<svg width="300" height="300" viewBox="0 0 300 300" fill="none" xmlns="http://www.w3.org/2000/svg">
<path d="M162.5 37.5C115.375 37.5 77.3749 74.375 74.9999 120.75L50.9999 152.375C47.9999 156.25 50.9999 162.5 56.2499 162.5H74.9999V200C74.9999 213.875 86.1249 225 99.9999 225H112.5V262.5H200V203.875C229.625 189.875 250 160 250 125C250 76.75 211 37.5 162.5 37.5ZM213.25 119.625L188.75 126.125L206.75 144.25C208.849 146.358 210.028 149.212 210.028 152.188C210.028 155.163 208.849 158.017 206.75 160.125C204.642 162.224 201.788 163.403 198.812 163.403C195.837 163.403 192.983 162.224 190.875 160.125L172.625 142.125L166.25 166.625C164.75 172.75 158.5 176.25 152.625 174.625C151.188 174.262 149.838 173.616 148.655 172.725C147.471 171.833 146.477 170.714 145.732 169.433C144.987 168.152 144.505 166.735 144.315 165.266C144.125 163.796 144.23 162.303 144.625 160.875L151.25 136.25L126.625 142.875C125.197 143.275 123.702 143.384 122.231 143.197C120.76 143.009 119.341 142.528 118.059 141.782C116.776 141.036 115.657 140.04 114.767 138.854C113.876 137.667 113.233 136.314 112.875 134.875C111.25 129 114.75 122.75 120.875 121.25L145.375 114.875L127.375 96.625C125.494 94.4772 124.501 91.6947 124.595 88.8415C124.69 85.9884 125.865 83.2778 127.884 81.2592C129.903 79.2406 132.613 78.0649 135.466 77.9703C138.32 77.8758 141.102 78.8694 143.25 80.75L161.375 98.75L167.875 74.25C168.225 72.8451 168.85 71.5233 169.712 70.3603C170.575 69.1973 171.659 68.216 172.901 67.4727C174.144 66.7295 175.521 66.2389 176.954 66.029C178.386 65.8192 179.846 65.8943 181.25 66.25C187.5 67.875 191 74 189.5 80.125L182.875 104.625L207.375 98C208.828 97.6253 210.34 97.5416 211.826 97.754C213.311 97.9663 214.74 98.4704 216.029 99.2373C217.319 100.004 218.444 101.019 219.34 102.222C220.236 103.426 220.885 104.795 221.25 106.25C221.606 107.654 221.681 109.114 221.471 110.546C221.261 111.979 220.77 113.356 220.027 114.599C219.284 115.841 218.303 116.925 217.14 117.787C215.977 118.65 214.655 119.274 213.25 119.625Z" fill="white"/>
</svg>
