<svg width="300" height="300" viewBox="0 0 300 300" fill="none" xmlns="http://www.w3.org/2000/svg">
<path fill-rule="evenodd" clip-rule="evenodd" d="M150 62.4998C191.422 62.4998 225 96.0787 225 137.5C225 165.26 209.918 189.498 187.5 202.466V250L175 262.5H162.5C162.5 269.404 156.904 275 150 275C143.097 275 137.5 269.404 137.5 262.5H125L112.5 250V202.466C90.0821 189.498 75 165.26 75 137.5C75 96.0787 108.579 62.4998 150 62.4998ZM162.501 211.463C158.37 212.154 154.189 212.501 150 212.5C145.741 212.5 141.565 212.145 137.5 211.463L137.5 237.5H162.5L162.501 211.463ZM81.4993 192.743L94.7573 206.001L68.2413 232.517L54.9827 219.259L81.4993 192.743ZM218.501 192.743L245.017 219.259L231.759 232.517L205.243 206.001L218.501 192.743ZM275 128.125V146.875H237.5V128.125H275ZM62.5002 128.125V146.875H25.0002V128.125H62.5002ZM231.76 42.4824L245.017 55.741L218.501 82.257L205.243 68.999L231.76 42.4824ZM68.2413 42.4824L94.7573 68.999L81.4993 82.257L54.9827 55.741L68.2413 42.4824ZM159.375 12.5V50H140.625V12.5H159.375Z" fill="white"/>
</svg>
