<svg width="300" height="300" viewBox="0 0 300 300" fill="none" xmlns="http://www.w3.org/2000/svg">
<path d="M253.125 46.875H46.875C41.9022 46.875 37.1331 48.8504 33.6167 52.3667C30.1004 55.8831 28.125 60.6522 28.125 65.625V234.375C28.125 239.348 30.1004 244.117 33.6167 247.633C37.1331 251.15 41.9022 253.125 46.875 253.125H253.125C258.098 253.125 262.867 251.15 266.383 247.633C269.9 244.117 271.875 239.348 271.875 234.375V65.625C271.875 60.6522 269.9 55.8831 266.383 52.3667C262.867 48.8504 258.098 46.875 253.125 46.875ZM108.75 170.625C110.739 172.117 112.054 174.338 112.406 176.799C112.757 179.261 112.117 181.761 110.625 183.75C109.133 185.739 106.912 187.054 104.451 187.406C101.989 187.757 99.4891 187.117 97.5 185.625L60 157.5C58.8357 156.627 57.8906 155.494 57.2397 154.193C56.5889 152.891 56.25 151.455 56.25 150C56.25 148.545 56.5889 147.109 57.2397 145.807C57.8906 144.506 58.8357 143.373 60 142.5L97.5 114.375C99.4891 112.883 101.989 112.243 104.451 112.594C106.912 112.946 109.133 114.261 110.625 116.25C112.117 118.239 112.757 120.739 112.406 123.201C112.054 125.662 110.739 127.883 108.75 129.375L81.2461 150L108.75 170.625ZM177.762 86.9531L140.262 218.203C139.942 219.408 139.386 220.537 138.624 221.524C137.863 222.511 136.913 223.336 135.829 223.952C134.745 224.567 133.55 224.96 132.312 225.108C131.075 225.256 129.82 225.155 128.622 224.813C127.423 224.47 126.305 223.891 125.333 223.111C124.361 222.331 123.554 221.365 122.96 220.27C122.365 219.174 121.995 217.971 121.872 216.731C121.748 215.491 121.872 214.238 122.238 213.047L159.738 81.7969C160.459 79.45 162.072 77.4795 164.229 76.3088C166.387 75.1381 168.918 74.8605 171.279 75.5358C173.639 76.211 175.64 77.7852 176.853 79.9201C178.065 82.055 178.391 84.5802 177.762 86.9531ZM240 157.5L202.5 185.625C200.511 187.117 198.011 187.757 195.549 187.406C193.088 187.054 190.867 185.739 189.375 183.75C187.883 181.761 187.243 179.261 187.594 176.799C187.946 174.338 189.261 172.117 191.25 170.625L218.754 150L191.25 129.375C190.265 128.636 189.435 127.711 188.808 126.652C188.181 125.592 187.768 124.42 187.594 123.201C187.42 121.982 187.488 120.741 187.793 119.548C188.099 118.356 188.636 117.235 189.375 116.25C190.114 115.265 191.039 114.435 192.099 113.808C193.158 113.181 194.33 112.768 195.549 112.594C196.768 112.42 198.009 112.488 199.202 112.793C200.394 113.099 201.515 113.636 202.5 114.375L240 142.5C241.164 143.373 242.109 144.506 242.76 145.807C243.411 147.109 243.75 148.545 243.75 150C243.75 151.455 243.411 152.891 242.76 154.193C242.109 155.494 241.164 156.627 240 157.5Z" fill="white"/>
</svg>
