<svg width="100" height="156" viewBox="0 0 100 156" fill="none" xmlns="http://www.w3.org/2000/svg">
<g clip-path="url(#clip0_7_2)">
<path d="M98.3507 90.7969C100.145 92.5379 100.55 94.5402 99.566 96.8036C98.5822 99.125 96.875 100.286 94.4444 100.286H61.2847L78.7326 141.723C79.3113 143.174 79.3113 144.596 78.7326 145.989C78.1539 147.382 77.1701 148.397 75.7812 149.036L60.4167 155.565C58.9699 156.145 57.5521 156.145 56.1632 155.565C54.7743 154.984 53.7616 153.998 53.125 152.605L36.5451 113.257L9.46181 140.417C8.36227 141.52 7.06018 142.071 5.55556 142.071C4.86111 142.071 4.16667 141.926 3.47222 141.636C1.15741 140.65 0 138.938 0 136.5V5.57143C0 3.13393 1.15741 1.42188 3.47222 0.435268C4.16667 0.145089 4.86111 0 5.55556 0C7.11806 0 8.42014 0.551339 9.46181 1.65402L98.3507 90.7969Z" fill="white"/>
</g>
<defs>
<clipPath id="clip0_7_2">
<rect width="100" height="156" fill="white"/>
</clipPath>
</defs>
</svg>
